<mxfile host="app.diagrams.net" modified="2020-12-11T03:26:19.350Z" agent="5.0 (Macintosh; Intel Mac OS X 10_13_6) AppleWebKit/537.36 (KHTML, like Gecko) Chrome/87.0.4280.88 Safari/537.36" etag="a3hHzbMlLA9IjdrWGVSY" version="14.0.1" type="github">
  <diagram id="fMXEeIl25ErO5_EuICrG" name="Page-1">
    <mxGraphModel dx="896" dy="591" grid="1" gridSize="10" guides="1" tooltips="1" connect="1" arrows="1" fold="1" page="1" pageScale="1" pageWidth="827" pageHeight="1169" math="0" shadow="0">
      <root>
        <mxCell id="0" />
        <mxCell id="1" parent="0" />
        <mxCell id="faIGe6OjhzB8N2jT-lD4-1" value="" style="rounded=1;whiteSpace=wrap;html=1;strokeWidth=2;dashed=1;strokeColor=#A9C4EB;shadow=0;fillColor=none;perimeterSpacing=3;" vertex="1" parent="1">
          <mxGeometry x="550" y="143" width="120" height="360" as="geometry" />
        </mxCell>
        <mxCell id="faIGe6OjhzB8N2jT-lD4-2" value="RocketMQ" style="shape=cylinder;whiteSpace=wrap;html=1;boundedLbl=1;backgroundOutline=1;fillColor=#b1ddf0;strokeColor=#10739e;" vertex="1" parent="1">
          <mxGeometry x="580" y="406" width="60" height="80" as="geometry" />
        </mxCell>
        <mxCell id="faIGe6OjhzB8N2jT-lD4-3" style="edgeStyle=orthogonalEdgeStyle;rounded=0;orthogonalLoop=1;jettySize=auto;html=1;entryX=1;entryY=0.5;entryDx=0;entryDy=0;startArrow=classic;startFill=1;strokeColor=#d6b656;strokeWidth=3;fontSize=15;fillColor=#fff2cc;curved=1;comic=0;" edge="1" parent="1" source="faIGe6OjhzB8N2jT-lD4-7" target="faIGe6OjhzB8N2jT-lD4-23">
          <mxGeometry relative="1" as="geometry" />
        </mxCell>
        <mxCell id="faIGe6OjhzB8N2jT-lD4-4" style="edgeStyle=orthogonalEdgeStyle;rounded=0;orthogonalLoop=1;jettySize=auto;html=1;entryX=1;entryY=0.5;entryDx=0;entryDy=0;startArrow=classic;startFill=1;strokeColor=#6c8ebf;strokeWidth=3;fontSize=15;fillColor=#dae8fc;curved=1;exitX=0.017;exitY=0.667;exitDx=0;exitDy=0;exitPerimeter=0;comic=0;" edge="1" parent="1" source="faIGe6OjhzB8N2jT-lD4-7" target="faIGe6OjhzB8N2jT-lD4-23">
          <mxGeometry relative="1" as="geometry" />
        </mxCell>
        <mxCell id="faIGe6OjhzB8N2jT-lD4-5" style="edgeStyle=orthogonalEdgeStyle;curved=1;rounded=0;orthogonalLoop=1;jettySize=auto;html=1;startArrow=classic;startFill=1;strokeColor=#9673a6;strokeWidth=3;fontSize=15;fillColor=#e1d5e7;entryX=0;entryY=0.5;entryDx=0;entryDy=0;" edge="1" parent="1" source="faIGe6OjhzB8N2jT-lD4-7" target="faIGe6OjhzB8N2jT-lD4-1">
          <mxGeometry relative="1" as="geometry">
            <mxPoint x="507" y="280" as="targetPoint" />
          </mxGeometry>
        </mxCell>
        <mxCell id="faIGe6OjhzB8N2jT-lD4-6" style="edgeStyle=orthogonalEdgeStyle;curved=1;rounded=0;orthogonalLoop=1;jettySize=auto;html=1;startArrow=classic;startFill=1;strokeWidth=3;strokeColor=#F19C99;" edge="1" parent="1" source="faIGe6OjhzB8N2jT-lD4-7" target="faIGe6OjhzB8N2jT-lD4-13">
          <mxGeometry relative="1" as="geometry" />
        </mxCell>
        <mxCell id="faIGe6OjhzB8N2jT-lD4-7" value="MQTT Broker2&lt;br&gt;192.168.11.8" style="strokeWidth=2;html=1;shape=mxgraph.flowchart.direct_data;whiteSpace=wrap;fillColor=#b0e3e6;strokeColor=#0e8088;" vertex="1" parent="1">
          <mxGeometry x="330" y="298" width="130" height="60" as="geometry" />
        </mxCell>
        <mxCell id="faIGe6OjhzB8N2jT-lD4-8" style="edgeStyle=orthogonalEdgeStyle;curved=1;rounded=0;orthogonalLoop=1;jettySize=auto;html=1;startArrow=classic;startFill=1;strokeColor=#9673a6;strokeWidth=3;fontSize=15;fillColor=#e1d5e7;entryX=0;entryY=0.5;entryDx=0;entryDy=0;" edge="1" parent="1" source="faIGe6OjhzB8N2jT-lD4-10" target="faIGe6OjhzB8N2jT-lD4-1">
          <mxGeometry relative="1" as="geometry">
            <mxPoint x="490" y="240" as="targetPoint" />
          </mxGeometry>
        </mxCell>
        <mxCell id="faIGe6OjhzB8N2jT-lD4-9" style="edgeStyle=orthogonalEdgeStyle;curved=1;rounded=0;orthogonalLoop=1;jettySize=auto;html=1;entryX=0.5;entryY=0;entryDx=0;entryDy=0;entryPerimeter=0;startArrow=classic;startFill=1;strokeWidth=3;fillColor=#cdeb8b;strokeColor=#F19C99;" edge="1" parent="1" source="faIGe6OjhzB8N2jT-lD4-10" target="faIGe6OjhzB8N2jT-lD4-7">
          <mxGeometry relative="1" as="geometry" />
        </mxCell>
        <mxCell id="faIGe6OjhzB8N2jT-lD4-10" value="MQTT Broker1&lt;br&gt;192.168.11.7" style="strokeWidth=2;html=1;shape=mxgraph.flowchart.direct_data;whiteSpace=wrap;fillColor=#b0e3e6;strokeColor=#0e8088;" vertex="1" parent="1">
          <mxGeometry x="330" y="140" width="130" height="60" as="geometry" />
        </mxCell>
        <mxCell id="faIGe6OjhzB8N2jT-lD4-11" style="edgeStyle=orthogonalEdgeStyle;rounded=0;orthogonalLoop=1;jettySize=auto;html=1;startArrow=classic;startFill=1;strokeColor=#82b366;strokeWidth=3;fontSize=15;fillColor=#d5e8d4;curved=1;comic=0;" edge="1" parent="1" source="faIGe6OjhzB8N2jT-lD4-13" target="faIGe6OjhzB8N2jT-lD4-23">
          <mxGeometry relative="1" as="geometry" />
        </mxCell>
        <mxCell id="faIGe6OjhzB8N2jT-lD4-12" style="edgeStyle=orthogonalEdgeStyle;curved=1;rounded=0;orthogonalLoop=1;jettySize=auto;html=1;startArrow=classic;startFill=1;strokeColor=#9673a6;strokeWidth=3;fontSize=15;fillColor=#e1d5e7;" edge="1" parent="1" source="faIGe6OjhzB8N2jT-lD4-13" target="faIGe6OjhzB8N2jT-lD4-1">
          <mxGeometry relative="1" as="geometry">
            <mxPoint x="490" y="400" as="targetPoint" />
          </mxGeometry>
        </mxCell>
        <mxCell id="faIGe6OjhzB8N2jT-lD4-13" value="MQTT Broker3&lt;br&gt;192.168.11.9" style="strokeWidth=2;html=1;shape=mxgraph.flowchart.direct_data;whiteSpace=wrap;align=center;fillColor=#b0e3e6;strokeColor=#0e8088;" vertex="1" parent="1">
          <mxGeometry x="330" y="467" width="130" height="60" as="geometry" />
        </mxCell>
        <mxCell id="faIGe6OjhzB8N2jT-lD4-14" style="edgeStyle=orthogonalEdgeStyle;rounded=0;orthogonalLoop=1;jettySize=auto;html=1;entryX=0;entryY=0.5;entryDx=0;entryDy=0;startArrow=classic;startFill=1;strokeColor=#FF0000;strokeWidth=3;fontSize=15;curved=1;" edge="1" parent="1" source="faIGe6OjhzB8N2jT-lD4-15" target="faIGe6OjhzB8N2jT-lD4-23">
          <mxGeometry relative="1" as="geometry" />
        </mxCell>
        <mxCell id="faIGe6OjhzB8N2jT-lD4-15" value="A" style="shape=ext;double=1;rounded=1;whiteSpace=wrap;html=1;fillColor=#dae8fc;strokeColor=#6c8ebf;" vertex="1" parent="1">
          <mxGeometry x="10" y="197" width="100" height="40" as="geometry" />
        </mxCell>
        <mxCell id="faIGe6OjhzB8N2jT-lD4-16" style="edgeStyle=orthogonalEdgeStyle;rounded=0;orthogonalLoop=1;jettySize=auto;html=1;entryX=0;entryY=0.5;entryDx=0;entryDy=0;startArrow=classic;startFill=1;strokeColor=#d79b00;strokeWidth=3;fontSize=15;fillColor=#ffe6cc;curved=1;" edge="1" parent="1" source="faIGe6OjhzB8N2jT-lD4-17" target="faIGe6OjhzB8N2jT-lD4-23">
          <mxGeometry relative="1" as="geometry" />
        </mxCell>
        <mxCell id="faIGe6OjhzB8N2jT-lD4-17" value="B" style="shape=ext;double=1;rounded=1;whiteSpace=wrap;html=1;fillColor=#dae8fc;strokeColor=#6c8ebf;" vertex="1" parent="1">
          <mxGeometry x="10" y="277" width="100" height="40" as="geometry" />
        </mxCell>
        <mxCell id="faIGe6OjhzB8N2jT-lD4-18" style="edgeStyle=orthogonalEdgeStyle;rounded=0;orthogonalLoop=1;jettySize=auto;html=1;startArrow=classic;startFill=1;strokeColor=#6c8ebf;strokeWidth=3;fontSize=15;fillColor=#dae8fc;curved=1;entryX=0;entryY=0.5;entryDx=0;entryDy=0;" edge="1" parent="1" source="faIGe6OjhzB8N2jT-lD4-19" target="faIGe6OjhzB8N2jT-lD4-23">
          <mxGeometry relative="1" as="geometry">
            <mxPoint x="160" y="335" as="targetPoint" />
          </mxGeometry>
        </mxCell>
        <mxCell id="faIGe6OjhzB8N2jT-lD4-19" value="C" style="shape=ext;double=1;rounded=1;whiteSpace=wrap;html=1;fillColor=#dae8fc;strokeColor=#6c8ebf;" vertex="1" parent="1">
          <mxGeometry x="10" y="357" width="100" height="40" as="geometry" />
        </mxCell>
        <mxCell id="faIGe6OjhzB8N2jT-lD4-20" style="edgeStyle=orthogonalEdgeStyle;rounded=0;orthogonalLoop=1;jettySize=auto;html=1;startArrow=classic;startFill=1;strokeColor=#82b366;strokeWidth=3;fontSize=15;fillColor=#d5e8d4;curved=1;entryX=0;entryY=0.5;entryDx=0;entryDy=0;" edge="1" parent="1" source="faIGe6OjhzB8N2jT-lD4-21" target="faIGe6OjhzB8N2jT-lD4-23">
          <mxGeometry relative="1" as="geometry">
            <mxPoint x="160" y="350" as="targetPoint" />
          </mxGeometry>
        </mxCell>
        <mxCell id="faIGe6OjhzB8N2jT-lD4-21" value="D" style="shape=ext;double=1;rounded=1;whiteSpace=wrap;html=1;fillColor=#dae8fc;strokeColor=#6c8ebf;" vertex="1" parent="1">
          <mxGeometry x="10" y="437" width="100" height="40" as="geometry" />
        </mxCell>
        <mxCell id="faIGe6OjhzB8N2jT-lD4-22" style="edgeStyle=orthogonalEdgeStyle;rounded=0;orthogonalLoop=1;jettySize=auto;html=1;entryX=0;entryY=0.5;entryDx=0;entryDy=0;entryPerimeter=0;startArrow=classic;startFill=1;strokeWidth=3;strokeColor=#FF0000;curved=1;comic=0;" edge="1" parent="1" source="faIGe6OjhzB8N2jT-lD4-23" target="faIGe6OjhzB8N2jT-lD4-10">
          <mxGeometry relative="1" as="geometry">
            <mxPoint x="264" y="246" as="sourcePoint" />
          </mxGeometry>
        </mxCell>
        <mxCell id="faIGe6OjhzB8N2jT-lD4-23" value="" style="label;whiteSpace=wrap;html=1;align=center;verticalAlign=bottom;spacingLeft=0;spacingBottom=4;imageAlign=center;imageVerticalAlign=top;image=/img/clipart/Gear_128x128.png;fillColor=#fad7ac;strokeColor=#b46504;" vertex="1" parent="1">
          <mxGeometry x="170" y="200" width="90" height="270" as="geometry" />
        </mxCell>
        <mxCell id="faIGe6OjhzB8N2jT-lD4-24" value="Nginx" style="text;html=1;strokeColor=none;fillColor=none;align=center;verticalAlign=middle;whiteSpace=wrap;rounded=0;fontSize=15;horizontal=1;" vertex="1" parent="1">
          <mxGeometry x="195" y="277" width="40" height="103" as="geometry" />
        </mxCell>
        <mxCell id="faIGe6OjhzB8N2jT-lD4-25" value="&lt;font style=&quot;font-size: 13px&quot;&gt;相同颜色的线为同一长连接&lt;br&gt;&lt;/font&gt;" style="shape=note;whiteSpace=wrap;html=1;backgroundOutline=1;darkOpacity=0.05;fontSize=15;size=15;fillColor=#fff2cc;strokeColor=#d6b656;" vertex="1" parent="1">
          <mxGeometry x="10" y="110" width="170" height="31" as="geometry" />
        </mxCell>
        <mxCell id="faIGe6OjhzB8N2jT-lD4-26" value="GRPC" style="text;html=1;strokeColor=none;fillColor=none;align=center;verticalAlign=middle;whiteSpace=wrap;rounded=0;" vertex="1" parent="1">
          <mxGeometry x="375" y="397" width="40" height="20" as="geometry" />
        </mxCell>
        <mxCell id="faIGe6OjhzB8N2jT-lD4-27" value="GRPC" style="text;html=1;strokeColor=none;fillColor=none;align=center;verticalAlign=middle;whiteSpace=wrap;rounded=0;" vertex="1" parent="1">
          <mxGeometry x="375" y="240" width="40" height="20" as="geometry" />
        </mxCell>
        <mxCell id="faIGe6OjhzB8N2jT-lD4-28" value="Redis" style="shape=cylinder;whiteSpace=wrap;html=1;boundedLbl=1;backgroundOutline=1;fillColor=#b1ddf0;strokeColor=#10739e;" vertex="1" parent="1">
          <mxGeometry x="580" y="153" width="60" height="80" as="geometry" />
        </mxCell>
        <mxCell id="faIGe6OjhzB8N2jT-lD4-29" value="ZK" style="shape=cylinder;whiteSpace=wrap;html=1;boundedLbl=1;backgroundOutline=1;fillColor=#b1ddf0;strokeColor=#10739e;" vertex="1" parent="1">
          <mxGeometry x="580" y="283" width="60" height="80" as="geometry" />
        </mxCell>
      </root>
    </mxGraphModel>
  </diagram>
</mxfile>
